<?xml version="1.0" standalone="no"?><svg xmlns="http://www.w3.org/2000/svg" viewBox="0 0 1440 320"><path fill="#0099ff" fill-opacity="1" d="M0,224L40,213.3C80,203,160,181,240,181.3C320,181,400,203,480,181.3C560,160,640,96,720,90.7C800,85,880,139,960,176C1040,213,1120,235,1200,208C1280,181,1360,107,1400,69.3L1440,32L1440,320L1400,320C1360,320,1280,320,1200,320C1120,320,1040,320,960,320C880,320,800,320,720,320C640,320,560,320,480,320C400,320,320,320,240,320C160,320,80,320,40,320L0,320Z"></path></svg>